<svg id="b29cc94d-80bc-4a9c-98ff-ec54bba4acd2" data-name="Layer 1" xmlns="http://www.w3.org/2000/svg" width="13" height="19.53" viewBox="0 0 13 19.53"><title>chain-pull</title><path d="M10.5,4.5c.31,1.39.1,3.47-1,4C8.55,9,7.89,7.78,6,7.94c-1.44.12-1.79.86-2.5.56-1.07-.45-1.33-2.55-1-4a4.7,4.7,0,0,1,1-2A4,4,0,0,1,6,1,4.22,4.22,0,0,1,9.5,2.5,4.57,4.57,0,0,1,10.5,4.5Z" transform="translate(-0.5 -0.47)" fill="#a58251" stroke="#a58251" stroke-miterlimit="10"/><ellipse cx="6.5" cy="13.25" rx="6" ry="5.78" fill="#a58251" stroke="#a58251" stroke-miterlimit="10"/></svg>