<svg id="Layer_1" data-name="Layer 1" xmlns="http://www.w3.org/2000/svg" width="6.9953" height="7.0015" viewBox="0 0 6.9953 7.0015"><defs><style>.cls-1{fill:#fbb03b;}.cls-2{fill:#d69238;}</style></defs><title>chain</title><path class="cls-1" d="M7.4908,4.0725a3.19,3.19,0,0,1-.97,2.39,3.4849,3.4849,0,0,1-2.5632.9464A3.533,3.533,0,0,1,1.744,6.3367a3.643,3.643,0,0,1-1.2345-2.9,3.3317,3.3317,0,0,1,.982-2.02A3.3867,3.3867,0,0,1,3.9576.4182,3.5253,3.5253,0,0,1,6.2989,1.57,3.608,3.608,0,0,1,7.4908,4.0725Z" transform="translate(-0.4962 -0.4154)"/><path class="cls-2" d="M4.9576,6.4091A3.5325,3.5325,0,0,1,2.744,5.3366,3.6426,3.6426,0,0,1,1.51,2.437,3.124,3.124,0,0,1,2.0446.9716a3.6439,3.6439,0,0,0-.5531.4453,3.3313,3.3313,0,0,0-.982,2.02,3.6426,3.6426,0,0,0,1.2345,2.9A3.5325,3.5325,0,0,0,3.9576,7.4091a3.4849,3.4849,0,0,0,2.5632-.9464,3.0284,3.0284,0,0,0,.4817-.5985A3.3529,3.3529,0,0,1,4.9576,6.4091Z" transform="translate(-0.4962 -0.4154)"/></svg>